<svg xmlns="http://www.w3.org/2000/svg" xmlns:xlink="http://www.w3.org/1999/xlink" version="1.1" width="2380" height="800" style="width: 2380px; height: 800px; background: #ffffff" viewBox="0 0 2380 800"><style id="v-3" type="text/css">        .joint-element .scalable * {            vector-effect: non-scaling-stroke;        }    </style><defs joint-selector="defs"><marker id="v-2-1904287839" orient="auto" overflow="visible" markerUnits="userSpaceOnUse"><path id="v-54" stroke="#5c6873" fill="#5c6873" transform="rotate(180)" d="M 20 -10 0 0 20 10 Z"></path></marker></defs><g joint-selector="layers"  transform="matrix(1,0,0,1,0,0)"><g  style="pointer-events: none;"></g><g ></g><g  style="user-select: none;"><!--z-index:1--><!--z-index:2--><!--z-index:3--><!--z-index:4--><!--z-index:5--><!--z-index:6--><!--z-index:7--><g   id="j_9"  transform="translate(199.5,0)"><g id="v-75"><text  id="v-76" font-size="24px" xml:space="preserve" display="none" y="0.8em" font-weight="normal" text-anchor="start" fill="#444444" pointer-events="none" font-family="Tahoma, Verdana, Helvetica, Arial"><tspan dy="0" style="fill-opacity: 0; stroke-opacity: 0;" >-</tspan></text></g></g><!--z-index:8--><g   id="j_8"  transform="translate(199.5,51)"><g id="v-73"><text  id="v-74" font-size="36px" xml:space="preserve" display="none" y="0.8em" font-weight="normal" text-anchor="start" fill="#444444" pointer-events="none" font-family="Tahoma, Verdana, Helvetica, Arial"><tspan dy="0" style="fill-opacity: 0; stroke-opacity: 0;" >-</tspan></text></g></g><!--z-index:9--><g   id="j_10"  transform="translate(199,199)" style=""><g  id="v-80" style="opacity: 1;"><rect  x="0" y="160" width="400" height="240" rx="70" id="v-82" stroke-width="2" pointer-events="visiblePainted" fill="#17324d" stroke="#17324d" stroke-dasharray="" style="fill: rgb(23, 50, 77); stroke: rgb(23, 50, 77);"></rect><circle  cx="200" cy="88.88888888888889" r="88.88888888888889" id="v-81" stroke-width="2" pointer-events="visiblePainted" fill="#17324d" stroke="#17324d" stroke-dasharray="" style="fill: rgb(23, 50, 77); stroke: rgb(23, 50, 77);"></circle><line  x1="80" y1="266.6666666666667" x2="80" y2="400" id="v-88" stroke="#17324d" stroke-width="1" stroke-dasharray="" style="stroke: rgb(23, 50, 77);"></line><line  x1="320" y1="266.6666666666667" x2="320" y2="400" id="v-89" stroke="#17324d" stroke-width="1" stroke-dasharray="" style="stroke: rgb(23, 50, 77);"></line><text  id="v-83" font-size="33.599999999999994px" xml:space="preserve" y="188.10000000000002" font-weight="bold" text-anchor="middle" pointer-events="visible" font-family="Tahoma, Verdana, Helvetica, Arial" fill="#ffffff" dominant-baseline="hanging" transform="matrix(1,0,0,1,200,0)" style="fill: rgb(255, 255, 255);"><tspan dy="0" >David</tspan></text><text  id="v-84" font-size="16.799999999999997px" xml:space="preserve" y="229.70000000000002" text-anchor="middle" font-family="Tahoma, Verdana, Helvetica, Arial" fill="#ffffff" dominant-baseline="hanging" transform="matrix(1,0,0,1,200,0)" style="display: block; fill: rgb(255, 255, 255);"><tspan dy="0" >[Person]</tspan></text><text  id="v-85" font-size="24px" xml:space="preserve" y="261.5" text-anchor="middle" font-family="Tahoma, Verdana, Helvetica, Arial" fill="#ffffff" dominant-baseline="hanging" transform="matrix(1,0,0,1,200,0)" style="display: block; fill: rgb(255, 255, 255);"><tspan dy="0" >Evie's local owner; explicitly</tspan><tspan dy="1.2em" x="0" >selects scope, approves</tspan><tspan dy="1.2em" x="0" >mutations, and inspects</tspan><tspan dy="1.2em" x="0" >memory.</tspan></text><g  id="v-86" font-weight="normal" text-anchor="middle" color="#ffffff" transform="matrix(1,0,0,1,197.5,368)" display="none" style="fill: rgb(255, 255, 255);"><g ></g><g ></g><g ></g><g ></g></g><image  id="v-87"></image></g></g><!--z-index:10--><g   id="j_11"  transform="translate(1729,249)" style=""><g  id="v-93" style="opacity: 1;"><rect  id="v-94" rx="20" ry="20" stroke-width="2" pointer-events="visiblePainted" fill="#f1f2f4" stroke="#8b929a" stroke-dasharray="" width="450" height="300" style="fill: rgb(241, 242, 244); stroke: rgb(139, 146, 154);"></rect><text  id="v-95" font-size="33.599999999999994px" xml:space="preserve" y="86.9" font-weight="bold" text-anchor="middle" pointer-events="visible" font-family="Tahoma, Verdana, Helvetica, Arial" fill="#303740" dominant-baseline="hanging" transform="matrix(1,0,0,1,225,0)" style="fill: rgb(48, 55, 64);"><tspan dy="0" >OpenRouter</tspan></text><text  id="v-96" font-size="16.799999999999997px" xml:space="preserve" y="128.5" text-anchor="middle" font-family="Tahoma, Verdana, Helvetica, Arial" fill="#303740" dominant-baseline="hanging" transform="matrix(1,0,0,1,225,0)" style="display: block; fill: rgb(48, 55, 64);"><tspan dy="0" >[Software System]</tspan></text><text  id="v-97" font-size="24px" xml:space="preserve" y="160.3" text-anchor="middle" font-family="Tahoma, Verdana, Helvetica, Arial" fill="#303740" dominant-baseline="hanging" transform="matrix(1,0,0,1,225,0)" style="display: block; fill: rgb(48, 55, 64);"><tspan dy="0" >Remote conversational model</tspan><tspan dy="1.2em" x="0" >transport.</tspan></text><g  id="v-98" color="#303740" transform="matrix(1,0,0,1,222.5,268)" display="none" style="fill: rgb(48, 55, 64);"><g ></g><g ></g><g ></g><g ></g></g><image  id="v-99"></image></g></g><!--z-index:11--><g   id="j_12"  transform="translate(939,249)" style=""><g  id="v-103" style="opacity: 1;"><rect  id="v-104" rx="20" ry="20" stroke-width="2" pointer-events="visiblePainted" fill="#245b87" stroke="#17324d" stroke-dasharray="" width="450" height="300" style="fill: rgb(36, 91, 135); stroke: rgb(23, 50, 77);"></rect><text  id="v-105" font-size="33.599999999999994px" xml:space="preserve" y="72.5" font-weight="bold" text-anchor="middle" pointer-events="visible" font-family="Tahoma, Verdana, Helvetica, Arial" fill="#ffffff" dominant-baseline="hanging" transform="matrix(1,0,0,1,225,0)" style="fill: rgb(255, 255, 255);"><tspan dy="0" >Evie</tspan></text><text  id="v-106" font-size="16.799999999999997px" xml:space="preserve" y="114.1" text-anchor="middle" font-family="Tahoma, Verdana, Helvetica, Arial" fill="#ffffff" dominant-baseline="hanging" transform="matrix(1,0,0,1,225,0)" style="display: block; fill: rgb(255, 255, 255);"><tspan dy="0" >[Software System]</tspan></text><text  id="v-107" font-size="24px" xml:space="preserve" y="145.89999999999998" text-anchor="middle" font-family="Tahoma, Verdana, Helvetica, Arial" fill="#ffffff" dominant-baseline="hanging" transform="matrix(1,0,0,1,225,0)" style="display: block; fill: rgb(255, 255, 255);"><tspan dy="0" >A local-first personal agent runtime</tspan><tspan dy="1.2em" x="0" >with restart-safe episodic, working,</tspan><tspan dy="1.2em" x="0" >and semantic memory.</tspan></text><g  id="v-108" color="#ffffff" transform="matrix(1,0,0,1,210,268)" display="none" style="fill: rgb(255, 255, 255);"><g  transform="translate(5 0)"><svg xmlns="http://www.w3.org/2000/svg" width="20" height="20" fill="currentColor" viewBox="0 0 16 16"><path fill-rule="evenodd" d="M6.5 12a5.5 5.5 0 1 0 0-11 5.5 5.5 0 0 0 0 11zM13 6.5a6.5 6.5 0 1 1-13 0 6.5 6.5 0 0 1 13 0z"></path><path d="M10.344 11.742c.03.04.062.078.098.115l3.85 3.85a1 1 0 0 0 1.415-1.414l-3.85-3.85a1.007 1.007 0 0 0-.115-.1 6.538 6.538 0 0 1-1.398 1.4z"></path><path fill-rule="evenodd" d="M6.5 3a.5.5 0 0 1 .5.5V6h2.5a.5.5 0 0 1 0 1H7v2.5a.5.5 0 0 1-1 0V7H3.5a.5.5 0 0 1 0-1H6V3.5a.5.5 0 0 1 .5-.5z"></path></svg></g><g ></g><g ></g><g ></g></g><image  id="v-109"></image></g></g><!--z-index:12--><g   id="j_13"  style="opacity: 1;"><path fill="none" cursor="pointer" stroke="transparent" stroke-linecap="round" joint-selector="wrapper" id="v-121" stroke-width="10" stroke-linejoin="round" d="M 599 399 L 939 399"></path><path fill="none" pointer-events="none" joint-selector="line" id="v-120" stroke="#5c6873" stroke-width="2" stroke-linejoin="round" stroke-dasharray="8 8" d="M 599 399 L 939 399" marker-end="url(#v-2-1904287839)"></path><g id="v-113" ><g id="v-114"  label-idx="0" cursor="move" transform="matrix(1,0,0,1,769,399)" style="cursor: default;"><rect joint-selector="rect" id="v-117" fill="#ffffff" rx="3" ry="3" x="-96.60033416748047" y="-15.112499237060547" width="193.20066833496094" height="27.890623092651367" pointer-events="none"  style="display: block;"></rect><text joint-selector="text" id="v-116" font-size="24px" xml:space="preserve" fill="#5c6873" text-anchor="middle" pointer-events="none" font-family="Tahoma, Verdana, Helvetica, Arial" font-weight="normal"  style="display: block;"><tspan dy="0.3em" >Uses and governs</tspan></text></g><g id="v-115"  label-idx="1" cursor="move" transform="matrix(1,0,0,1,759,411)" style="cursor: default;"><rect joint-selector="rect" id="v-119" fill="#ffffff" rx="3" ry="3" x="0" y="0" width="0" height="0"  display="none"></rect><text joint-selector="text" id="v-118" fill="#000000" font-size="14" text-anchor="middle" text-vertical-anchor="middle" pointer-events="none"></text></g></g></g><!--z-index:13--><g   id="j_14"  style="opacity: 1;"><path fill="none" cursor="pointer" stroke="transparent" stroke-linecap="round" joint-selector="wrapper" id="v-136" stroke-width="10" stroke-linejoin="round" d="M 1389 399 L 1729 399"></path><path fill="none" pointer-events="none" joint-selector="line" id="v-135" stroke="#5c6873" stroke-width="2" stroke-linejoin="round" stroke-dasharray="8 8" d="M 1389 399 L 1729 399" marker-end="url(#v-2-1904287839)"></path><g id="v-125" ><g id="v-126"  label-idx="0" cursor="move" transform="matrix(1,0,0,1,1559,385.6000061035156)" style="cursor: default;"><rect joint-selector="rect" id="v-130" fill="#ffffff" rx="3" ry="3" x="-90.61547088623047" y="-58.312496185302734" width="181.23094177246094" height="114.2906265258789" pointer-events="none"  style="display: block;"></rect><text joint-selector="text" id="v-129" font-size="24px" xml:space="preserve" fill="#5c6873" text-anchor="middle" pointer-events="none" font-family="Tahoma, Verdana, Helvetica, Arial" font-weight="normal"  style="display: block;"><tspan dy="-1.4999999999999998em" >Sends approved,</tspan><tspan dy="1.2em" x="0" >bounded</tspan><tspan dy="1.2em" x="0" >conversational</tspan><tspan dy="1.2em" x="0" >requests</tspan></text></g><g id="v-127"  label-idx="1" cursor="move" transform="matrix(1,0,0,1,1559,459.20001220703125)" style="cursor: default;"><rect joint-selector="rect" id="v-132" fill="#ffffff" rx="3" ry="3" x="-32.132320404052734" y="-9.834999084472656" width="64.26464080810547" height="18.593748092651367"  pointer-events="none" style="display: block;"></rect><text joint-selector="text" id="v-131" font-size="16.799999999999997px" xml:space="preserve" fill="#5c6873" text-anchor="middle" pointer-events="none" font-family="Tahoma, Verdana, Helvetica, Arial" font-weight="normal"  style="display: block;"><tspan dy="0.3em" >[HTTPS]</tspan></text></g><g id="v-128"  label-idx="2" cursor="move" transform="matrix(1,0,0,1,1549,467.6000061035156)" style="cursor: default;"><rect joint-selector="rect" id="v-134" fill="#ffffff" rx="3" ry="3" x="0" y="0" width="0" height="0"  display="none"></rect><text joint-selector="text" id="v-133" fill="#000000" font-size="14" text-anchor="middle" text-vertical-anchor="middle" pointer-events="none"></text></g></g></g><!--z-index:14--></g><g  style="user-select: none;"></g><g ></g><g  display="none"></g></g></svg>